<?xml version="1.0" standalone="no"?>
<!DOCTYPE svg PUBLIC "-//W3C//DTD SVG 20010904//EN"
 "http://www.w3.org/TR/2001/REC-SVG-20010904/DTD/svg10.dtd">
<svg version="1.0" xmlns="http://www.w3.org/2000/svg"
 width="1024.000000pt" height="1024.000000pt" viewBox="0 0 1024.000000 1024.000000"
 preserveAspectRatio="xMidYMid meet">

<g transform="translate(0.000000,1024.000000) scale(0.100000,-0.100000)"
fill="#000000" stroke="none">
<path d="M3360 7392 c-19 -9 -45 -32 -57 -51 -21 -31 -23 -45 -23 -165 l0
-131 -158 0 c-152 0 -160 -1 -195 -25 -21 -14 -46 -43 -57 -66 -20 -40 -20
-65 -20 -1682 0 -1782 -3 -1679 55 -1732 33 -31 87 -32 255 -7 158 24 489 33
672 18 257 -21 523 -76 742 -155 86 -31 106 -43 162 -96 104 -100 216 -141
384 -141 148 0 279 51 380 147 42 40 73 59 128 79 100 36 318 101 367 109 66
11 69 17 44 66 -12 23 -24 65 -27 92 -4 44 -14 63 -74 142 -39 50 -74 93 -79
94 -20 8 -301 -140 -424 -223 -71 -48 -147 -96 -167 -106 l-38 -19 0 170 0
170 34 0 c129 0 403 91 553 184 l42 27 74 -93 c181 -230 188 -241 192 -295 2
-28 10 -67 19 -86 8 -20 102 -145 208 -279 107 -134 273 -342 369 -464 193
-242 208 -254 312 -262 189 -14 321 137 277 318 -11 44 -38 85 -179 264 -92
116 -247 315 -345 441 -99 127 -193 245 -210 263 -34 37 -95 72 -125 72 -12 0
-38 26 -73 73 -29 39 -92 123 -140 185 l-88 113 25 27 c90 96 214 329 260 487
46 159 58 262 52 450 -6 187 -27 297 -88 457 -182 478 -626 821 -1131 873 -38
4 -68 10 -67 14 1 12 130 116 222 179 315 215 683 327 1145 348 l152 7 0
-1502 0 -1501 -35 0 c-20 0 -81 -7 -135 -16 l-99 -17 21 -29 c11 -16 32 -34
47 -39 63 -24 95 -45 134 -85 42 -43 43 -44 112 -44 83 0 129 20 162 69 l23
34 0 1378 0 1379 100 0 100 0 0 -1526 0 -1526 -27 6 c-44 10 -254 36 -285 36
-26 0 -23 -5 72 -127 l100 -127 102 -18 c129 -22 152 -22 195 -1 25 11 41 29
54 59 19 41 19 98 17 1702 -3 1658 -3 1661 -24 1689 -11 15 -40 38 -65 51 -41
22 -53 23 -191 20 l-148 -3 0 131 c0 120 -2 134 -23 165 -41 61 -70 69 -268
69 -566 0 -1042 -141 -1428 -424 -45 -33 -91 -67 -101 -74 -15 -11 -28 -5
-101 50 -394 297 -882 448 -1454 448 -152 0 -185 -3 -215 -18z m430 -222 c311
-27 550 -93 805 -220 146 -73 283 -165 382 -255 l58 -53 -60 -7 c-95 -10 -213
-35 -293 -61 -396 -130 -728 -463 -863 -866 -53 -157 -71 -274 -71 -448 0
-246 46 -433 157 -648 74 -142 151 -245 266 -357 203 -197 443 -318 716 -361
l108 -17 -3 -164 c-2 -99 -7 -163 -13 -163 -18 0 -91 41 -183 104 -266 183
-628 364 -901 449 -103 32 -303 77 -344 77 l-31 0 0 1500 0 1500 78 0 c42 0
129 -5 192 -10z m-500 -1739 l0 -1379 26 -31 c37 -44 50 -49 161 -62 117 -13
224 -37 353 -79 108 -35 310 -118 325 -133 7 -7 3 -8 -10 -3 -40 14 -233 37
-399 46 -173 10 -453 0 -581 -20 -33 -6 -63 -10 -67 -10 -5 0 -8 686 -8 1525
l0 1525 100 0 100 0 0 -1379z m1970 964 c213 -29 387 -99 548 -222 228 -174
387 -447 433 -747 18 -115 6 -352 -24 -466 -74 -283 -270 -544 -518 -691 -46
-27 -202 -99 -215 -99 -2 0 -4 96 -4 213 l0 212 133 144 132 144 76 1 c66 1
82 5 124 31 121 75 141 250 42 353 -55 57 -100 75 -183 70 -92 -4 -144 -37
-186 -117 -30 -57 -38 -143 -18 -196 9 -24 0 -36 -126 -178 -75 -83 -144 -163
-153 -176 -14 -22 -16 -63 -17 -286 l0 -260 -45 -7 c-24 -3 -56 -7 -71 -7
l-28 -1 0 364 0 365 135 163 c79 96 139 177 145 198 5 19 10 103 10 186 0 149
0 152 23 158 65 16 140 123 153 217 14 102 -52 220 -151 272 -57 30 -183 30
-240 0 -54 -28 -119 -100 -136 -149 -43 -126 13 -275 125 -335 l46 -24 0 -138
0 -138 -127 -155 c-71 -86 -135 -168 -143 -182 -12 -23 -14 -87 -11 -409 2
-303 0 -383 -10 -383 -7 0 -41 5 -76 11 l-63 11 0 254 c0 287 -2 299 -69 356
l-41 35 -2 173 -2 172 39 19 c194 95 194 381 0 481 -22 11 -67 23 -101 26
-111 8 -205 -40 -262 -136 -23 -41 -27 -58 -27 -127 0 -66 5 -89 25 -129 26
-52 90 -113 127 -122 22 -6 22 -8 25 -218 l3 -213 27 -35 c15 -20 41 -42 58
-50 l30 -13 0 -208 0 -208 -78 40 c-291 152 -500 426 -583 767 -30 120 -33
358 -5 484 52 239 166 443 338 606 191 181 401 274 693 308 66 7 125 5 225 -9z
m161 -544 c58 -59 26 -147 -58 -158 -37 -5 -45 -2 -73 25 -41 42 -42 92 -1
133 22 21 39 29 66 29 27 0 44 -8 66 -29z m-711 -396 c31 -31 34 -93 6 -124
-40 -44 -120 -43 -151 2 -17 25 -20 80 -5 107 28 53 105 60 150 15z m1150
-305 c24 -24 26 -57 3 -82 -34 -38 -103 -11 -103 40 0 56 61 81 100 42z"/>
</g>
</svg>
